<svg id="Layer_1" data-name="Layer 1" xmlns="http://www.w3.org/2000/svg" xmlns:xlink="http://www.w3.org/1999/xlink" width="898.7373" height="211.7671" viewBox="0 0 898.7373 211.7671">
  <defs>
    <style>
      .cls-1, .cls-5 {
        fill: none;
      }

      .cls-2 {
        fill: #1e143d;
      }

      .cls-3 {
        clip-path: url(#clip-path);
      }

      .cls-4 {
        fill: #1d133c;
      }

      .cls-5 {
        stroke: #1d133c;
        stroke-miterlimit: 10;
        stroke-width: 0.2116px;
      }
    </style>
    <clipPath id="clip-path" transform="translate(-54.5608 -394.1164)">
      <rect class="cls-1" x="54.6667" y="394.2222" width="211.5556" height="211.5556"/>
    </clipPath>
  </defs>
  <g>
    <path class="cls-2" d="M364.8149,486.39q-6.0321,0-10.5957,7.8233-4.5643,7.8252-4.5634,18.582V556.48H361.229v2.9336H310.3726V556.48h8.9648V484.76h-8.9648v-2.9346h39.2832v15.6484a22.1125,22.1125,0,0,1,8.15-12.7959,22.3613,22.3613,0,0,1,13.6914-4.4824q7.66,0,12.47,4.3193,4.8062,4.3214,4.8086,12.2256,0,7.9073-3.586,12.1436-3.5874,4.2393-11.0029,4.2373-7.4194,0-10.9209-4.89-3.5068-4.89-.8965-13.5293h5.8682Q372.31,486.3892,364.8149,486.39Z" transform="translate(-54.5608 -394.1164)"/>
    <path class="cls-2" d="M401.5728,550.2041q-10.5147-10.8384-10.5137-30.1553,0-19.3154,11.8174-29.5849,11.8153-10.2686,30.0732-10.2686,37,0,35.5342,37.1641H422.5181v6.3574q0,15.9756,4.0742,24.123,4.0737,8.1534,14.1816,8.15,18.9067,0,24.7754-20.2119l2.9346.4893q-3.0981,11.7363-11.166,18.2558-8.0684,6.5215-24.2051,6.52Q412.0864,561.043,401.5728,550.2041ZM422.6812,514.1H439.47v-7.9873q0-13.2027-1.5488-18.0117-1.5513-4.8062-6.1943-4.8086-4.6451,0-6.8458,5.1348t-2.2,17.6855Z" transform="translate(-54.5608 -394.1164)"/>
    <path class="cls-2" d="M474.6763,481.8252H513.959v14.9961a27.0787,27.0787,0,0,1,7.9863-12.0615q5.3789-4.5615,16.3008-4.5645,25.2627,0,25.2646,27.2207V556.48h9.128v2.9336H526.51V556.48h6.6826V503.5039q0-9.7792-1.3037-12.6318a4.7511,4.7511,0,0,0-4.7266-2.8526q-5.2193,0-9.21,6.8457-3.996,6.8467-3.9931,16.626V556.48h7.0088v2.9336H474.6763V556.48h8.9648V484.76h-8.9648Z" transform="translate(-54.5608 -394.1164)"/>
    <path class="cls-2" d="M582.0938,536.1045V484.76h-8.9649v-2.9346h8.9649V460.7979l30.3173-7.4971v28.5244h21.19V484.76h-21.19V539.69q0,7.6641,1.5489,11.2471,1.5468,3.5874,6.4384,3.5859,4.89,0,8.5577-4.89,3.6679-4.8912,4.8085-13.3662l2.7706.3262q-1.3067,11.247-7.1719,17.8476-5.8682,6.6021-19.3965,6.6016-13.5323,0-20.7012-5.3789Q582.0908,550.2851,582.0938,536.1045Z" transform="translate(-54.5608 -394.1164)"/>
    <path class="cls-2" d="M677.2852,521.1084h4.7265V508.5576q0-15.4848-1.7109-20.7832-1.7124-5.294-6.6016-5.2969a9.4612,9.4612,0,0,0-5.2978,1.5479,4.8216,4.8216,0,0,0-2.3633,4.2383,16.3289,16.3289,0,0,0,.9785,5.4609h4.0742a23.1628,23.1628,0,0,1,1.3047,8.2315,10.6453,10.6453,0,0,1-4.0752,8.3125,15.1876,15.1876,0,0,1-10.2695,3.5048q-14.02,0-14.0176-13.5293,0-20.0493,34.0674-20.0488,19.3945,0,26.8135,6.6016,7.415,6.6019,7.416,24.2051v33.09q0,8.4771,4.7275,8.4756,5.5386,0,6.5195-16.7891l2.4454.1631q-.6534,14.3452-5.3789,19.7227-4.73,5.3789-15.4854,5.3789-19.56,0-22.4941-12.0616-2.12,6.1964-6.3565,9.128-4.2406,2.934-12.3887,2.9336-24.1245,0-24.124-19.7227,0-11.5722,9.21-15.8926Q658.2115,521.1109,677.2852,521.1084Zm-5.6231,30.97a3.3762,3.3762,0,0,0,3.4229,2.4453q2.5254,0,4.7265-4.1562t2.2-11.4922V523.7168h-1.1406q-10.1089,0-10.1055,14.833v2.6074Q670.7656,549.6343,671.6621,552.0781Z" transform="translate(-54.5608 -394.1164)"/>
    <path class="cls-2" d="M766.9346,437.1631v57.05q6.1918-14.0157,21.1894-14.0176,30.4791,0,30.4815,40.5869,0,20.7027-8.3946,30.4815-8.3964,9.7793-25.1836,9.7793-8.4769,0-12.958-2.6075-4.4853-2.606-6.1132-8.64l-1.1407,9.6172h-37.164V556.48h8.9648V440.0977h-8.9648v-2.9346Zm18.582,55.8281q-1.6318-5.7846-6.3574-5.7871-4.7286,0-8.4756,5.8682-3.7515,5.8682-3.749,16.1367v30.3183a23.2393,23.2393,0,0,0,2.8525,11.8995,8.96,8.96,0,0,0,8.1494,4.89q5.2955,0,7.2539-7.1719,1.9556-7.17,1.9561-25.1025v-8.4756Q787.1465,498.7793,785.5166,492.9912Z" transform="translate(-54.5608 -394.1164)"/>
    <path class="cls-2" d="M822.8428,437.1631h39.9355V556.48h9.1279v2.9336H823.4951V556.48H832.46V440.0977h-9.6172Z" transform="translate(-54.5608 -394.1164)"/>
    <path class="cls-2" d="M886.3311,550.2041q-10.5147-10.8384-10.5137-30.1553,0-19.3154,11.8174-29.5849,11.8153-10.2686,30.0732-10.2686,37,0,35.5342,37.1641H907.2764v6.3574q0,15.9756,4.0742,24.123,4.0737,8.1534,14.1816,8.15,18.9067,0,24.7754-20.2119l2.9346.4893q-3.0981,11.7363-11.166,18.2558-8.0683,6.5215-24.2051,6.52Q896.8447,561.043,886.3311,550.2041ZM907.44,514.1h16.789v-7.9873q0-13.2027-1.5488-18.0117-1.5513-4.8062-6.1943-4.8086-4.6451,0-6.8458,5.1348t-2.2,17.6855Z" transform="translate(-54.5608 -394.1164)"/>
  </g>
  <g class="cls-3">
    <g class="cls-3">
      <path class="cls-4" d="M240.095,394.2222H80.7937a26.1271,26.1271,0,0,0-26.1271,26.1271V579.6506a26.1271,26.1271,0,0,0,26.1271,26.1271H240.095a26.127,26.127,0,0,0,26.1271-26.1271V420.3493a26.127,26.127,0,0,0-26.1271-26.1271m-40.57,159.886q-4.5674,4.8121-18.1743,4.8133-13.6115,0-19.3364-6.39-5.726-6.3876-5.7262-23.9838V516.4315q0-9.2931-2.4064-13.61-2.4079-4.3139-8.88-4.3154H131.5329l-.9325-3.1534H141.516q9.4607,0,14.0251-5.8091t4.5641-18.9215v-4.8133q0-13.1094-4.398-17.3444-4.4-4.2323-14.0251-4.2324h-4.214V444.23H115.9068l-.9327-3.1509h22.494v-.0007h5.7078q21.5742,0,30.6227,2.2406,9.044,2.2407,12.6969,5.3943,7.967,6.473,7.9668,20.5809t-6.971,20.1662q-6.9708,6.0607-21.2448,7.22v.4978q13.4437,1.8285,18.7554,7.967,5.31,6.1422,5.3111,20.5812v8.7964q0,8.6325.9127,11.6187a3.7745,3.7745,0,0,0,3.9006,2.9874,5.3609,5.3609,0,0,0,4.73-2.7386q1.7431-2.739,3.2366-11.5353l2.8217.3319q-1.8285,14.1093-6.39,18.9213" transform="translate(-54.5608 -394.1164)"/>
      <path class="cls-5" d="M240.095,394.2222H80.7937a26.1271,26.1271,0,0,0-26.1271,26.1271V579.6506a26.1271,26.1271,0,0,0,26.1271,26.1271H240.095a26.127,26.127,0,0,0,26.1271-26.1271V420.3493A26.127,26.127,0,0,0,240.095,394.2222Zm-40.57,159.886q-4.5674,4.8121-18.1743,4.8133-13.6115,0-19.3364-6.39-5.726-6.3876-5.7262-23.9838V516.4315q0-9.2931-2.4064-13.61-2.4079-4.3139-8.88-4.3154H131.5329l-.9325-3.1534H141.516q9.4607,0,14.0251-5.8091t4.5641-18.9215v-4.8133q0-13.1094-4.398-17.3444-4.4-4.2323-14.0251-4.2324h-4.214V444.23H115.9068l-.9327-3.1509h22.494v-.0007h5.7078q21.5742,0,30.6227,2.2406,9.044,2.2407,12.6969,5.3943,7.967,6.473,7.9668,20.5809t-6.971,20.1662q-6.9708,6.0607-21.2448,7.22v.4978q13.4437,1.8285,18.7554,7.967,5.31,6.1422,5.3111,20.5812v8.7964q0,8.6325.9127,11.6187a3.7745,3.7745,0,0,0,3.9006,2.9874,5.3609,5.3609,0,0,0,4.73-2.7386q1.7431-2.739,3.2366-11.5353l2.8217.3319Q204.0863,549.2962,199.5248,554.1082Z" transform="translate(-54.5608 -394.1164)"/>
    </g>
  </g>
</svg>
